<svg xmlns="http://www.w3.org/2000/svg" width="24" height="24" viewBox="0 0 24 24" fill="none">
  <path d="M12 4.2C8.95 4.2 6.5 6.65 6.5 9.7V12.25C6.5 13.02 6.23 13.77 5.73 14.35L4.9 15.34C4.31 16.05 4.81 17.12 5.73 17.12H18.27C19.19 17.12 19.69 16.05 19.1 15.34L18.27 14.35C17.77 13.77 17.5 13.02 17.5 12.25V9.7C17.5 6.65 15.05 4.2 12 4.2Z" fill="#FFF7ED" stroke="#EA580C" stroke-width="1.8"/>
  <path d="M10.95 20.05C11.23 20.55 11.75 20.9 12.35 20.9C12.95 20.9 13.47 20.55 13.75 20.05" stroke="#EA580C" stroke-width="1.8" stroke-linecap="round"/>
  <circle cx="17.6" cy="6.4" r="2.2" fill="#EA580C"/>
</svg>
